<?xml version="1.0" encoding="UTF-8"?>
<svg xmlns="http://www.w3.org/2000/svg" width="616" height="626" viewBox="0 0 616 626">
  <path fill="#155dfc" fill-rule="evenodd" d="M 323 608 L 323 609 L 327 609 L 327 608 Z M 116 541 L 116 542 L 117 543 L 118 543 L 119 544 L 119 543 L 118 542 L 117 542 Z M 110 536 L 110 537 L 111 538 L 112 538 L 113 539 L 113 538 L 112 537 L 111 537 Z M 87 514 L 88 515 L 88 516 L 101 529 L 102 529 L 103 530 L 103 529 L 88 514 Z M 79 505 L 80 506 L 80 507 L 83 510 L 84 510 L 83 509 L 83 508 L 80 505 Z M 48 461 L 48 462 L 49 463 L 49 464 L 51 466 L 51 467 L 52 468 L 52 469 L 54 471 L 54 472 L 56 474 L 56 475 L 58 477 L 58 478 L 60 480 L 60 481 L 62 483 L 62 484 L 65 487 L 65 488 L 68 491 L 68 492 L 71 495 L 71 496 L 75 500 L 75 501 L 77 503 L 78 503 L 77 502 L 77 501 L 73 497 L 73 496 L 69 492 L 69 491 L 66 488 L 66 487 L 64 485 L 64 484 L 61 481 L 61 480 L 59 478 L 59 477 L 57 475 L 57 474 L 55 472 L 55 471 L 53 469 L 53 468 L 52 467 L 52 466 L 50 464 L 50 463 L 49 462 L 49 461 Z M 331 425 L 330 426 L 330 429 L 331 430 L 331 433 L 332 434 L 332 437 L 333 438 L 333 440 L 334 441 L 334 444 L 335 445 L 335 448 L 336 449 L 336 452 L 337 453 L 337 455 L 338 456 L 338 459 L 339 460 L 339 463 L 340 464 L 340 466 L 341 467 L 341 470 L 342 471 L 342 474 L 343 475 L 343 478 L 344 479 L 344 481 L 345 482 L 345 485 L 347 487 L 353 487 L 354 486 L 354 485 L 355 484 L 355 482 L 356 481 L 356 479 L 357 478 L 357 476 L 358 475 L 358 472 L 359 471 L 359 469 L 360 468 L 360 466 L 361 465 L 361 463 L 362 462 L 362 460 L 363 459 L 363 457 L 364 456 L 364 453 L 365 452 L 365 450 L 366 449 L 366 447 L 368 445 L 369 445 L 370 446 L 370 448 L 371 449 L 371 451 L 372 452 L 372 454 L 373 455 L 373 457 L 374 458 L 374 461 L 375 462 L 375 464 L 376 465 L 376 467 L 377 468 L 377 470 L 378 471 L 378 473 L 379 474 L 379 476 L 380 477 L 380 480 L 381 481 L 381 483 L 382 484 L 382 486 L 383 487 L 390 487 L 391 486 L 391 484 L 392 483 L 392 480 L 393 479 L 393 476 L 394 475 L 394 473 L 395 472 L 395 469 L 396 468 L 396 465 L 397 464 L 397 462 L 398 461 L 398 458 L 399 457 L 399 454 L 400 453 L 400 451 L 401 450 L 401 447 L 402 446 L 402 443 L 403 442 L 403 439 L 404 438 L 404 436 L 405 435 L 405 432 L 406 431 L 406 428 L 407 427 L 407 426 L 406 425 L 402 425 L 400 427 L 400 429 L 399 430 L 399 433 L 398 434 L 398 437 L 397 438 L 397 441 L 396 442 L 396 445 L 395 446 L 395 448 L 394 449 L 394 452 L 393 453 L 393 456 L 392 457 L 392 460 L 391 461 L 391 464 L 390 465 L 390 467 L 389 468 L 389 471 L 388 472 L 388 475 L 387 476 L 386 476 L 384 474 L 384 472 L 383 471 L 383 469 L 382 468 L 382 466 L 381 465 L 381 462 L 380 461 L 380 459 L 379 458 L 379 456 L 378 455 L 378 453 L 377 452 L 377 449 L 376 448 L 376 446 L 375 445 L 375 443 L 374 442 L 374 440 L 373 439 L 373 437 L 371 435 L 365 435 L 363 438 L 363 440 L 362 441 L 362 443 L 361 444 L 361 447 L 360 448 L 360 450 L 359 451 L 359 453 L 358 454 L 358 456 L 357 457 L 357 460 L 356 461 L 356 463 L 355 464 L 355 466 L 354 467 L 354 469 L 353 470 L 353 472 L 352 473 L 352 475 L 350 477 L 349 476 L 349 474 L 348 473 L 348 471 L 347 470 L 347 467 L 346 466 L 346 463 L 345 462 L 345 459 L 344 458 L 344 455 L 343 454 L 343 451 L 342 450 L 342 448 L 341 447 L 341 444 L 340 443 L 340 440 L 339 439 L 339 436 L 338 435 L 338 432 L 337 431 L 337 429 L 336 428 L 336 426 L 335 425 Z M 286 425 L 285 426 L 285 435 L 284 436 L 284 450 L 285 451 L 285 458 L 284 459 L 285 460 L 285 463 L 284 464 L 284 476 L 285 477 L 285 484 L 284 485 L 285 486 L 285 487 L 323 487 L 324 486 L 324 483 L 323 482 L 292 482 L 290 480 L 290 460 L 292 458 L 315 458 L 316 457 L 316 454 L 315 453 L 292 453 L 290 451 L 290 432 L 292 430 L 323 430 L 324 429 L 324 426 L 323 425 Z M 227 425 L 226 426 L 226 486 L 227 487 L 230 487 L 231 486 L 231 465 L 233 463 L 250 463 L 252 465 L 252 466 L 253 467 L 253 468 L 254 469 L 254 470 L 255 471 L 255 472 L 257 474 L 257 475 L 258 476 L 258 477 L 259 478 L 259 479 L 261 481 L 261 482 L 262 483 L 262 484 L 263 485 L 263 486 L 264 487 L 269 487 L 270 486 L 270 485 L 269 484 L 269 483 L 268 482 L 268 481 L 266 479 L 266 478 L 264 476 L 264 475 L 263 474 L 263 473 L 261 471 L 261 470 L 260 469 L 260 468 L 258 466 L 258 465 L 257 464 L 257 463 L 259 461 L 260 461 L 261 460 L 262 460 L 267 455 L 267 453 L 268 452 L 268 436 L 267 435 L 267 433 L 265 431 L 265 430 L 263 428 L 262 428 L 261 427 L 260 427 L 259 426 L 257 426 L 256 425 Z M 231 432 L 233 430 L 255 430 L 256 431 L 257 431 L 258 432 L 259 432 L 260 433 L 260 434 L 262 436 L 262 451 L 261 452 L 261 453 L 258 456 L 257 456 L 256 457 L 233 457 L 231 455 Z M 177 428 L 174 431 L 174 432 L 173 433 L 173 434 L 172 435 L 172 477 L 173 478 L 173 479 L 174 480 L 174 481 L 178 485 L 179 485 L 180 486 L 182 486 L 183 487 L 212 487 L 213 486 L 213 483 L 212 482 L 184 482 L 183 481 L 182 481 L 179 478 L 179 477 L 178 476 L 178 436 L 179 435 L 179 434 L 181 432 L 182 432 L 183 431 L 184 431 L 185 430 L 211 430 L 213 428 L 213 426 L 212 425 L 184 425 L 183 426 L 181 426 L 180 427 L 179 427 L 178 428 Z M 421 347 L 416 352 L 416 353 L 415 354 L 415 358 L 414 359 L 414 392 L 415 393 L 415 397 L 416 398 L 416 399 L 421 404 L 422 404 L 423 405 L 426 405 L 427 406 L 455 406 L 456 405 L 456 374 L 455 373 L 451 373 L 450 374 L 450 399 L 448 401 L 427 401 L 426 400 L 425 400 L 421 396 L 421 395 L 420 394 L 420 357 L 421 356 L 421 355 L 425 351 L 427 351 L 428 350 L 453 350 L 454 349 L 454 346 L 453 345 L 430 345 L 429 346 L 424 346 L 423 347 Z M 357 345 L 356 346 L 356 405 L 357 406 L 361 406 L 362 405 L 362 368 L 361 367 L 361 359 L 362 358 L 363 358 L 364 359 L 364 360 L 366 362 L 366 363 L 367 364 L 367 365 L 369 367 L 369 368 L 370 369 L 370 370 L 372 372 L 372 373 L 373 374 L 373 375 L 374 376 L 374 377 L 376 379 L 376 380 L 377 381 L 377 382 L 379 384 L 379 385 L 380 386 L 380 387 L 382 389 L 382 390 L 383 391 L 383 392 L 385 394 L 385 395 L 386 396 L 386 397 L 387 398 L 387 399 L 389 401 L 389 402 L 390 403 L 390 404 L 392 406 L 397 406 L 398 405 L 398 346 L 397 345 L 393 345 L 392 346 L 392 387 L 393 388 L 393 393 L 392 394 L 391 394 L 390 393 L 390 392 L 389 391 L 389 390 L 387 388 L 387 387 L 386 386 L 386 385 L 384 383 L 384 382 L 383 381 L 383 380 L 381 378 L 381 377 L 380 376 L 380 375 L 378 373 L 378 372 L 377 371 L 377 370 L 376 369 L 376 368 L 374 366 L 374 365 L 373 364 L 373 363 L 371 361 L 371 360 L 370 359 L 370 358 L 368 356 L 368 355 L 367 354 L 367 353 L 365 351 L 365 350 L 364 349 L 364 348 L 363 347 L 363 346 L 362 345 Z M 333 345 L 332 346 L 332 405 L 333 406 L 336 406 L 337 405 L 337 346 L 336 345 Z M 274 345 L 273 346 L 273 347 L 274 348 L 274 350 L 275 351 L 275 353 L 276 354 L 276 356 L 277 357 L 277 359 L 278 360 L 278 362 L 279 363 L 279 365 L 280 366 L 280 368 L 281 369 L 281 371 L 282 372 L 282 374 L 283 375 L 283 377 L 284 378 L 284 380 L 285 381 L 285 382 L 286 383 L 286 385 L 287 386 L 287 388 L 288 389 L 288 391 L 289 392 L 289 394 L 290 395 L 290 397 L 291 398 L 291 400 L 292 401 L 292 403 L 293 404 L 293 405 L 294 406 L 300 406 L 302 404 L 302 402 L 303 401 L 303 399 L 304 398 L 304 396 L 305 395 L 305 393 L 306 392 L 306 390 L 307 389 L 307 387 L 308 386 L 308 384 L 309 383 L 309 381 L 310 380 L 310 379 L 311 378 L 311 376 L 312 375 L 312 373 L 313 372 L 313 370 L 314 369 L 314 367 L 315 366 L 315 364 L 316 363 L 316 361 L 317 360 L 317 358 L 318 357 L 318 355 L 319 354 L 319 352 L 320 351 L 320 349 L 321 348 L 321 346 L 320 345 L 316 345 L 315 346 L 315 347 L 314 348 L 314 350 L 313 351 L 313 353 L 312 354 L 312 356 L 311 357 L 311 359 L 310 360 L 310 362 L 309 363 L 309 365 L 308 366 L 308 368 L 307 369 L 307 371 L 306 372 L 306 375 L 305 376 L 305 378 L 304 379 L 304 381 L 303 382 L 303 384 L 302 385 L 302 387 L 301 388 L 301 390 L 300 391 L 300 393 L 299 394 L 299 396 L 298 397 L 297 397 L 295 395 L 295 393 L 294 392 L 294 390 L 293 389 L 293 387 L 292 386 L 292 384 L 291 383 L 291 381 L 290 380 L 290 378 L 289 377 L 289 375 L 288 374 L 288 371 L 287 370 L 287 368 L 286 367 L 286 365 L 285 364 L 285 362 L 284 361 L 284 359 L 283 358 L 283 356 L 282 355 L 282 353 L 281 352 L 281 350 L 280 349 L 280 347 L 278 345 Z M 236 345 L 235 346 L 235 405 L 236 406 L 273 406 L 274 405 L 274 402 L 273 401 L 243 401 L 241 399 L 241 346 L 240 345 Z M 181 346 L 179 348 L 178 348 L 177 349 L 177 350 L 175 352 L 175 354 L 174 355 L 174 396 L 175 397 L 175 399 L 176 400 L 176 401 L 179 404 L 180 404 L 181 405 L 182 405 L 183 406 L 185 406 L 186 407 L 206 407 L 207 406 L 210 406 L 211 405 L 212 405 L 217 400 L 217 399 L 218 398 L 218 396 L 219 395 L 219 357 L 218 356 L 218 353 L 217 352 L 217 351 L 213 347 L 212 347 L 211 346 L 210 346 L 209 345 L 184 345 L 183 346 Z M 185 350 L 207 350 L 208 351 L 209 351 L 212 354 L 212 355 L 213 356 L 213 396 L 208 401 L 207 401 L 206 402 L 187 402 L 186 401 L 184 401 L 181 398 L 181 397 L 180 396 L 180 394 L 179 393 L 179 358 L 180 357 L 180 355 Z M 160 345 L 138 345 L 137 346 L 131 346 L 130 347 L 129 347 L 124 352 L 124 353 L 123 354 L 123 357 L 122 358 L 122 364 L 123 365 L 123 368 L 124 369 L 124 370 L 127 373 L 128 373 L 130 375 L 132 375 L 133 376 L 137 376 L 138 377 L 141 377 L 142 378 L 146 378 L 147 379 L 150 379 L 151 380 L 152 380 L 156 384 L 156 395 L 155 396 L 155 397 L 153 399 L 152 399 L 151 400 L 150 400 L 149 401 L 122 401 L 121 402 L 121 405 L 122 406 L 150 406 L 151 405 L 153 405 L 154 404 L 155 404 L 157 402 L 158 402 L 159 401 L 159 400 L 161 398 L 161 396 L 162 395 L 162 385 L 161 384 L 161 382 L 160 381 L 160 380 L 156 376 L 155 376 L 154 375 L 152 375 L 151 374 L 147 374 L 146 373 L 143 373 L 142 372 L 138 372 L 137 371 L 135 371 L 134 370 L 133 370 L 132 369 L 131 369 L 129 367 L 129 366 L 128 365 L 128 357 L 129 356 L 129 355 L 133 351 L 135 351 L 136 350 L 160 350 L 161 349 L 161 346 Z M 444 204 L 444 205 L 445 206 L 446 206 L 449 209 L 449 210 L 450 211 L 450 213 L 451 214 L 451 216 L 452 217 L 470 217 L 471 216 L 471 214 L 470 213 L 464 213 L 462 211 L 462 204 L 461 203 L 445 203 Z M 327 204 L 333 210 L 333 211 L 334 212 L 334 216 L 335 217 L 345 217 L 346 216 L 346 204 L 345 203 L 328 203 Z M 211 204 L 211 205 L 212 206 L 213 206 L 216 209 L 216 210 L 217 211 L 217 213 L 218 214 L 218 216 L 219 217 L 228 217 L 229 216 L 229 204 L 228 203 L 212 203 Z M 311 199 L 312 200 L 345 200 L 346 199 L 345 198 L 312 198 Z M 194 199 L 195 200 L 228 200 L 229 199 L 228 198 L 195 198 Z M 350 183 L 349 184 L 349 270 L 350 271 L 381 271 L 383 273 L 383 279 L 381 281 L 378 281 L 377 282 L 373 282 L 372 283 L 368 283 L 365 285 L 363 285 L 356 290 L 355 292 L 355 295 L 351 299 L 350 301 L 350 305 L 351 307 L 355 310 L 358 310 L 362 308 L 364 303 L 363 302 L 362 298 L 361 298 L 359 296 L 360 293 L 362 291 L 368 288 L 370 288 L 371 287 L 374 287 L 375 286 L 382 286 L 384 288 L 384 293 L 385 295 L 381 299 L 380 301 L 380 305 L 383 309 L 385 310 L 388 310 L 392 308 L 394 304 L 393 300 L 390 297 L 390 289 L 393 286 L 399 286 L 400 287 L 404 287 L 405 288 L 407 288 L 411 290 L 415 294 L 415 296 L 411 300 L 411 306 L 416 310 L 419 310 L 421 309 L 424 306 L 424 300 L 420 296 L 420 293 L 419 291 L 415 287 L 409 284 L 407 284 L 406 283 L 403 283 L 402 282 L 398 282 L 397 281 L 393 281 L 391 279 L 392 278 L 392 273 L 394 271 L 426 271 L 427 270 L 427 266 L 426 265 L 409 265 L 407 263 L 407 184 L 406 183 Z M 234 183 L 233 184 L 233 270 L 234 271 L 264 271 L 266 273 L 266 277 L 267 278 L 267 279 L 265 281 L 261 281 L 260 282 L 256 282 L 255 283 L 252 283 L 251 284 L 249 284 L 243 287 L 239 291 L 239 295 L 236 298 L 235 298 L 234 300 L 234 306 L 235 308 L 239 310 L 242 310 L 246 307 L 247 305 L 247 301 L 243 296 L 243 294 L 247 290 L 251 288 L 253 288 L 254 287 L 258 287 L 259 286 L 266 286 L 268 288 L 268 296 L 264 300 L 264 306 L 265 308 L 269 310 L 272 310 L 274 309 L 277 305 L 277 301 L 273 296 L 273 294 L 274 293 L 274 288 L 276 286 L 283 286 L 284 287 L 287 287 L 288 288 L 290 288 L 296 291 L 299 294 L 299 295 L 295 299 L 294 301 L 294 305 L 295 307 L 299 310 L 303 310 L 305 309 L 308 305 L 308 301 L 306 299 L 306 298 L 305 298 L 303 296 L 303 292 L 302 290 L 295 285 L 293 285 L 290 283 L 287 283 L 286 282 L 277 281 L 275 279 L 275 274 L 278 271 L 310 271 L 311 270 L 311 266 L 310 265 L 292 265 L 290 263 L 290 184 L 289 183 Z M 117 183 L 116 184 L 116 270 L 117 271 L 148 271 L 150 273 L 150 279 L 148 281 L 145 281 L 144 282 L 140 282 L 139 283 L 135 283 L 132 285 L 130 285 L 123 290 L 122 292 L 122 295 L 118 299 L 117 301 L 117 305 L 118 307 L 122 310 L 125 310 L 129 308 L 131 303 L 130 302 L 129 298 L 127 296 L 127 294 L 131 290 L 135 288 L 137 288 L 138 287 L 141 287 L 142 286 L 149 286 L 151 288 L 151 292 L 152 293 L 152 295 L 148 299 L 147 301 L 147 305 L 150 309 L 152 310 L 155 310 L 159 308 L 161 304 L 161 302 L 159 298 L 157 296 L 157 289 L 160 286 L 166 286 L 167 287 L 171 287 L 172 288 L 174 288 L 178 290 L 182 294 L 182 296 L 178 300 L 178 306 L 183 310 L 186 310 L 188 309 L 191 306 L 191 300 L 187 296 L 187 293 L 186 291 L 182 287 L 176 284 L 174 284 L 173 283 L 170 283 L 169 282 L 165 282 L 164 281 L 160 281 L 158 279 L 159 278 L 159 273 L 161 271 L 193 271 L 194 270 L 194 266 L 193 265 L 176 265 L 174 263 L 174 184 L 173 183 Z M 364 172 L 357 178 L 357 180 L 408 180 L 410 182 L 410 257 L 411 258 L 433 258 L 435 260 L 435 300 L 436 301 L 436 303 L 440 307 L 441 307 L 442 308 L 444 308 L 445 309 L 447 309 L 448 308 L 450 308 L 451 307 L 452 307 L 455 304 L 455 303 L 457 300 L 457 245 L 456 244 L 455 241 L 452 238 L 451 238 L 450 237 L 446 237 L 445 236 L 418 236 L 416 234 L 416 218 L 417 217 L 419 217 L 421 219 L 422 219 L 423 220 L 425 220 L 426 221 L 431 221 L 432 222 L 440 222 L 441 221 L 443 221 L 444 220 L 445 220 L 445 219 L 447 217 L 447 213 L 446 212 L 446 211 L 442 208 L 430 208 L 429 207 L 428 207 L 425 204 L 425 203 L 424 202 L 424 199 L 423 198 L 423 181 L 422 180 L 422 176 L 421 175 L 420 172 L 416 169 L 414 169 L 413 168 L 374 168 L 373 169 L 370 169 L 369 170 Z M 249 171 L 247 173 L 246 173 L 240 179 L 240 180 L 292 180 L 294 182 L 294 257 L 295 258 L 317 258 L 319 260 L 319 301 L 320 302 L 321 305 L 325 308 L 328 308 L 329 309 L 330 309 L 331 308 L 334 308 L 338 305 L 338 304 L 340 301 L 340 244 L 339 243 L 338 240 L 334 237 L 330 237 L 329 236 L 302 236 L 300 234 L 300 218 L 301 217 L 302 217 L 307 220 L 309 220 L 310 221 L 315 221 L 316 222 L 324 222 L 325 221 L 327 221 L 330 218 L 330 212 L 329 211 L 329 210 L 326 208 L 313 208 L 309 205 L 309 204 L 308 203 L 308 201 L 307 200 L 307 194 L 306 193 L 306 178 L 305 177 L 305 175 L 304 174 L 304 173 L 300 169 L 298 169 L 297 168 L 257 168 L 256 169 L 253 169 L 252 170 Z M 131 172 L 124 178 L 124 180 L 175 180 L 177 182 L 177 257 L 178 258 L 200 258 L 202 260 L 202 300 L 203 301 L 204 304 L 207 307 L 208 307 L 209 308 L 214 309 L 215 308 L 217 308 L 218 307 L 219 307 L 222 304 L 222 303 L 224 300 L 224 245 L 223 244 L 222 241 L 219 238 L 218 238 L 217 237 L 213 237 L 212 236 L 185 236 L 183 234 L 183 218 L 184 217 L 186 217 L 188 219 L 189 219 L 190 220 L 192 220 L 193 221 L 198 221 L 199 222 L 207 222 L 208 221 L 210 221 L 213 219 L 213 218 L 214 217 L 214 213 L 213 212 L 213 211 L 209 208 L 197 208 L 196 207 L 195 207 L 192 204 L 192 203 L 191 202 L 191 198 L 190 197 L 190 181 L 189 180 L 189 176 L 188 175 L 187 172 L 183 169 L 181 169 L 180 168 L 141 168 L 140 169 L 137 169 L 136 170 Z M 418 147 L 419 148 L 495 148 L 497 150 L 497 196 L 495 198 L 428 198 L 427 199 L 428 200 L 498 200 L 499 199 L 499 147 L 498 146 L 419 146 Z M 301 147 L 302 148 L 372 148 L 373 147 L 372 146 L 302 146 Z M 185 147 L 186 148 L 256 148 L 257 147 L 256 146 L 186 146 Z M 379 143 L 379 144 L 378 145 L 378 146 L 377 147 L 377 148 L 376 149 L 376 161 L 377 162 L 377 163 L 379 165 L 412 165 L 413 164 L 413 163 L 414 162 L 414 161 L 415 160 L 415 150 L 414 149 L 414 147 L 413 146 L 413 145 L 411 143 L 411 142 L 409 140 L 408 140 L 405 137 L 404 137 L 403 136 L 400 136 L 399 135 L 392 135 L 391 136 L 388 136 L 387 137 L 386 137 L 385 138 L 384 138 Z M 262 144 L 262 145 L 261 146 L 261 147 L 260 148 L 260 150 L 259 151 L 259 159 L 260 160 L 260 162 L 261 163 L 261 164 L 262 165 L 296 165 L 297 164 L 297 162 L 298 161 L 298 158 L 299 157 L 299 153 L 298 152 L 298 149 L 297 148 L 297 146 L 295 144 L 295 143 L 290 138 L 289 138 L 288 137 L 287 137 L 286 136 L 283 136 L 282 135 L 275 135 L 274 136 L 272 136 L 271 137 L 270 137 L 269 138 L 268 138 Z M 146 143 L 146 144 L 145 145 L 145 146 L 144 147 L 144 148 L 143 149 L 143 160 L 144 161 L 144 163 L 146 165 L 179 165 L 181 163 L 181 161 L 182 160 L 182 150 L 181 149 L 181 147 L 180 146 L 180 145 L 178 143 L 178 142 L 176 140 L 175 140 L 172 137 L 171 137 L 170 136 L 167 136 L 166 135 L 159 135 L 158 136 L 155 136 L 154 137 L 153 137 L 151 139 L 150 139 Z M 273 7 L 222 17 L 170 38 L 121 70 L 80 110 L 50 152 L 25 205 L 13 275 L 12 312 L 26 226 L 19 304 L 30 228 L 59 160 L 96 111 L 162 59 L 229 31 L 307 21 L 380 33 L 445 62 L 508 113 L 548 172 L 564 207 L 575 248 L 580 325 L 573 372 L 558 420 L 529 472 L 497 510 L 525 488 L 488 530 L 428 575 L 497 529 L 529 495 L 553 460 L 576 408 L 589 362 L 594 328 L 595 263 L 598 274 L 598 330 L 587 394 L 571 436 L 538 492 L 498 535 L 456 566 L 402 592 L 333 607 L 351 609 L 311 613 L 338 614 L 388 604 L 450 578 L 506 538 L 542 499 L 570 456 L 593 399 L 604 340 L 603 274 L 592 218 L 569 163 L 539 119 L 494 74 L 446 42 L 392 19 L 332 7 Z M 354 606 L 355 605 L 357 605 L 358 606 L 358 607 L 357 608 L 355 608 L 354 607 Z M 359 606 L 359 605 L 360 604 L 361 604 L 362 605 L 360 607 Z M 489 547 L 489 548 L 486 551 L 485 551 L 482 554 L 481 554 L 478 557 L 477 557 L 475 559 L 474 559 L 471 562 L 470 562 L 469 563 L 468 562 L 468 561 L 470 559 L 471 559 L 474 556 L 475 556 L 477 554 L 478 554 L 481 551 L 482 551 L 486 547 L 487 547 L 488 546 Z M 493 542 L 494 543 L 494 544 L 492 546 L 491 546 L 490 547 L 489 546 L 489 545 L 491 543 L 492 543 Z M 500 536 L 501 537 L 501 538 L 498 541 L 497 541 L 496 542 L 495 541 L 495 540 L 498 537 L 499 537 Z M 508 529 L 509 530 L 509 531 L 506 534 L 505 534 L 504 535 L 503 534 L 503 533 L 506 530 L 507 530 Z M 525 512 L 526 513 L 525 514 L 525 515 L 521 519 L 520 519 L 519 518 L 520 517 L 520 516 L 524 512 Z M 531 505 L 532 506 L 531 507 L 531 508 L 529 510 L 528 510 L 527 509 L 528 508 L 528 507 L 530 505 Z M 536 499 L 537 500 L 536 501 L 536 502 L 534 504 L 533 504 L 532 503 L 533 502 L 533 501 L 535 499 Z M 594 260 L 595 259 L 596 260 L 595 261 Z M 29 220 L 30 221 L 30 223 L 29 224 L 28 223 L 28 221 Z M 29 220 L 30 219 L 31 220 L 30 221 Z M 29 217 L 30 216 L 31 217 L 30 218 Z M 30 215 L 31 214 L 32 215 L 32 216 L 31 217 L 30 216 Z M 386 22 L 387 21 L 388 22 L 387 23 Z M 385 21 L 386 20 L 387 21 L 386 22 Z M 379 20 L 380 19 L 381 20 L 380 21 Z M 378 19 L 379 18 L 380 19 L 379 20 Z M 372 18 L 373 17 L 374 18 L 373 19 Z M 371 17 L 372 16 L 373 17 L 372 18 Z"/>
</svg>
